<?xml version="1.0" standalone="no"?>
<!DOCTYPE svg PUBLIC "-//W3C//DTD SVG 20010904//EN"
 "http://www.w3.org/TR/2001/REC-SVG-20010904/DTD/svg10.dtd">
<svg version="1.0" xmlns="http://www.w3.org/2000/svg"
 viewBox="0 0 2600.000000 2600.000000"
 preserveAspectRatio="xMidYMid meet">
<metadata>
Created by potrace 1.15, written by Peter Selinger 2001-2017
</metadata>
<g transform="translate(0.000000,2600.000000) scale(0.100000,-0.100000)"
fill="#000000" stroke="none">
<path d="M12070 22139 c-337 -16 -766 -69 -1105 -135 -1353 -266 -2576 -864
-3617 -1771 -158 -137 -574 -553 -711 -711 -627 -720 -1106 -1525 -1442 -2426
l-53 -141 -39 -7 c-21 -4 -92 -17 -158 -29 -692 -125 -1321 -556 -1712 -1175
-150 -237 -281 -566 -337 -849 -48 -237 -60 -584 -31 -825 68 -547 316 -1069
700 -1469 365 -380 867 -654 1365 -746 80 -14 160 -29 179 -33 30 -6 36 -13
54 -62 55 -152 177 -452 238 -588 887 -1962 2540 -3459 4574 -4141 1215 -407
2544 -510 3815 -295 1870 316 3553 1303 4735 2779 509 635 921 1359 1206 2120
l67 180 39 7 c264 49 342 68 485 115 909 298 1585 1088 1739 2032 117 720 -70
1438 -529 2026 -83 106 -344 361 -454 443 -334 250 -699 412 -1083 481 -66 12
-137 25 -158 29 l-38 7 -68 180 c-267 710 -629 1364 -1092 1975 -260 344 -646
764 -964 1049 -882 791 -1896 1355 -3020 1681 -828 240 -1700 341 -2585 299z
m670 -857 c556 -131 948 -570 1010 -1133 44 -394 -144 -763 -484 -954 -128
-71 -297 -115 -443 -115 -194 1 -345 62 -478 193 -120 120 -185 252 -201 412
l-7 65 -420 0 -420 0 7 -97 c27 -375 177 -705 441 -969 218 -218 480 -358 790
-421 126 -25 439 -25 580 1 569 103 1041 457 1295 971 193 389 235 829 124
1278 -34 136 -92 294 -155 422 -30 60 -55 113 -57 116 -5 11 277 -74 451 -135
1487 -523 2738 -1522 3564 -2846 333 -535 574 -1071 782 -1745 l59 -190 263
-6 c250 -7 356 -17 484 -50 175 -44 405 -144 542 -236 386 -257 660 -658 752
-1100 64 -310 46 -610 -54 -911 -147 -438 -472 -808 -889 -1011 -276 -135
-561 -189 -928 -178 l-167 5 -10 -32 c-5 -17 -40 -128 -76 -246 -446 -1437
-1283 -2637 -2459 -3523 -657 -496 -1467 -898 -2251 -1117 -60 -16 -118 -33
-128 -36 -14 -4 -9 13 27 84 82 164 151 389 181 597 9 60 17 110 18 111 1 0
44 22 95 48 481 240 833 702 942 1235 28 140 40 341 40 711 0 369 -11 554 -40
703 -62 319 -221 626 -448 868 -308 327 -703 519 -1152 559 -88 8 -546 10
-1535 8 -1391 -4 -1411 -5 -1520 -26 -743 -144 -1285 -673 -1447 -1412 -23
-103 -23 -116 -23 -700 0 -647 -1 -628 60 -850 109 -391 369 -749 714 -981 57
-39 136 -86 175 -106 39 -19 72 -37 74 -38 2 -2 9 -50 17 -107 26 -199 89
-416 174 -601 22 -48 37 -87 32 -87 -16 0 -223 61 -366 109 -1762 582 -3217
1855 -4024 3521 -186 384 -296 673 -456 1194 l-37 118 -191 -4 c-222 -6 -359
4 -495 33 -339 73 -619 224 -866 467 -842 828 -634 2226 414 2780 163 86 372
155 556 182 43 7 193 15 333 19 l254 6 87 275 c137 437 248 713 436 1090 337
674 715 1205 1239 1739 635 647 1317 1120 2140 1484 867 383 1876 595 2765
582 181 -3 242 -7 310 -23z m1157 -9513 c194 -27 373 -113 514 -247 150 -142
244 -307 286 -503 16 -74 18 -137 18 -554 0 -454 -1 -473 -22 -558 -46 -180
-134 -335 -260 -460 l-69 -68 -48 111 c-91 208 -225 411 -396 594 -124 134
-180 210 -238 324 -79 155 -132 341 -132 465 l0 50 -252 -7 c-139 -3 -328 -9
-420 -13 l-168 -6 0 -48 c0 -147 57 -422 125 -604 101 -269 240 -486 475 -740
159 -173 251 -335 304 -535 101 -384 10 -789 -246 -1090 -355 -416 -953 -536
-1453 -291 -66 33 -150 82 -186 109 -246 187 -412 459 -465 763 -24 137 -15
360 20 492 30 118 79 233 142 338 45 74 78 115 262 321 294 329 469 750 506
1219 l5 66 -172 6 c-95 4 -283 10 -419 13 l-246 7 -6 -49 c-39 -321 -132 -529
-338 -752 -216 -233 -354 -439 -453 -677 l-16 -40 -59 62 c-116 123 -192 261
-237 432 -25 93 -26 107 -31 486 -6 548 6 658 93 842 53 113 91 169 169 252
150 157 325 251 534 286 102 17 2758 21 2879 4z"/>
<path d="M8910 15189 c-294 -45 -535 -263 -616 -560 -27 -97 -25 -281 4 -382
74 -260 269 -455 529 -529 101 -29 285 -31 382 -4 309 84 521 328 562 642 29
230 -59 477 -227 635 -91 86 -235 162 -356 189 -72 15 -206 20 -278 9z"/>
<path d="M15805 15190 c-299 -47 -538 -263 -616 -557 -32 -118 -29 -280 6
-398 75 -255 277 -452 535 -521 98 -27 282 -25 383 4 208 59 378 198 471 385
56 111 75 183 83 302 19 303 -160 598 -441 725 -121 55 -294 79 -421 60z"/>
</g>
</svg>
